<svg width="24" height="23" viewBox="0 0 24 23" fill="none" xmlns="http://www.w3.org/2000/svg">
<path d="M19.6331 14.6094L22.686 14.6094C23.1075 14.6094 23.4492 14.2677 23.4492 13.8461L23.4492 1.63469C23.4492 1.21321 23.1075 0.871449 22.686 0.871449L19.6331 0.871449C19.2116 0.871449 18.8699 1.21315 18.8699 1.63469L18.8699 13.8462C18.8699 14.2677 19.2115 14.6094 19.6331 14.6094Z" fill="white"/>
<path d="M0.566193 12.5849C0.700813 13.7689 1.80678 14.608 2.99836 14.608L8.94864 14.608C8.44296 15.5135 8.17153 18.0746 8.18357 19.1207C8.20353 20.8525 9.63764 22.2402 11.3694 22.2402L11.9992 22.2402C12.4211 22.2402 12.7625 21.8989 12.7625 21.477C12.7625 19.7121 13.4497 16.5265 14.7458 15.2304C15.6181 14.358 16.3639 14.0419 17.3418 13.5532L17.3418 2.10109C15.8446 1.60206 13.9437 0.870052 11.0463 0.870051L6.05365 0.870051C4.4086 0.870051 3.12739 2.39364 3.76485 4.0034C2.79366 4.26797 2.07744 5.15867 2.07744 6.21258C2.07744 6.51001 2.13482 6.79469 2.23842 7.05631C0.60179 7.50222 -0.000626295 9.52306 1.1353 10.7919C0.717978 11.2581 0.487837 11.8959 0.566193 12.5849Z" fill="white"/>
</svg>
