<svg width="32" height="29" viewBox="0 0 32 29" fill="none" xmlns="http://www.w3.org/2000/svg">
<path d="M25.6703 12.5293C27.5375 11.3122 28.7746 9.20593 28.7746 6.81555C28.7746 3.05741 25.7171 0 21.959 0C19.4434 0 17.2418 1.37014 16.061 3.40323C14.8801 1.37014 12.6788 0 10.1631 0C6.405 0 3.34735 3.05741 3.34735 6.81555C3.34735 9.20593 4.58437 11.3122 6.4516 12.5293C2.90282 13.9932 0.398438 17.4896 0.398438 21.5606V25.0009C0.398438 26.8621 1.91268 28.3761 3.77371 28.3761H28.3482C30.2095 28.3761 31.7235 26.8621 31.7235 25.0011V21.5606C31.7235 17.4896 29.2191 13.9932 25.6703 12.5293ZM21.959 1.83545C24.705 1.83545 26.9391 4.06954 26.9391 6.81555C26.9391 9.56179 24.705 11.7959 21.959 11.7959C19.2128 11.7959 16.9787 9.56179 16.9787 6.81555C16.9787 4.06954 19.2128 1.83545 21.959 1.83545ZM16.0576 13.7812C15.3913 13.275 14.6586 12.8527 13.8747 12.5293C14.7711 11.945 15.5223 11.1556 16.061 10.2283C16.5994 11.1551 17.3501 11.9441 18.2458 12.5284C17.4693 12.8477 16.7337 13.2678 16.0576 13.7812ZM5.1828 6.81555C5.1828 4.06954 7.41689 1.83545 10.1631 1.83545C12.9091 1.83545 15.1432 4.06954 15.1432 6.81555C15.1432 9.56179 12.9091 11.7959 10.1631 11.7959C7.41689 11.7959 5.1828 9.56179 5.1828 6.81555ZM15.5693 26.5407H3.77371C2.92457 26.5407 2.23389 25.85 2.23389 25.0011V21.5606C2.23389 17.1882 5.79103 13.6313 10.1631 13.6313C14.5352 13.6313 18.0924 17.1885 18.0924 21.5606V25.0011C18.0924 25.85 17.4015 26.5407 16.5526 26.5407H15.5693ZM29.888 25.0011C29.888 25.85 29.1973 26.5407 28.3482 26.5407H19.5545C19.7926 26.0787 19.9278 25.5555 19.9278 25.0011V21.5606C19.9278 19.0612 18.9833 16.7784 17.4335 15.0495C18.7551 14.1299 20.3303 13.6313 21.959 13.6313C26.3311 13.6313 29.888 17.1882 29.888 21.5606V25.0011Z" fill="white"/>
</svg>
