<svg width="31" height="33" viewBox="0 0 31 33" fill="none" xmlns="http://www.w3.org/2000/svg">
<path d="M0.644047 31.6161H5.17107C5.46404 31.6161 5.70111 31.379 5.70111 31.086V30.8663H7.25498C7.88957 30.8653 8.50915 31.0583 9.03064 31.4199C9.72916 31.9051 10.5599 32.1642 11.4104 32.1619H14.6511C16.3504 32.1601 17.7275 30.7827 17.7296 29.0834V23.2693C17.726 21.5713 16.3491 20.1963 14.6511 20.195H13.5647C13.6563 19.945 13.7031 19.6807 13.7034 19.4141V16.7831C13.7029 16.2003 13.4663 15.6428 13.0481 15.237C12.6296 14.8315 12.0649 14.6125 11.4823 14.6299C10.3047 14.6938 9.38495 15.6718 9.39349 16.8509V17.0171C9.39608 18.3417 8.67271 19.5609 7.50938 20.1937H5.70111V19.9739C5.70111 19.6812 5.46404 19.4439 5.17107 19.4439H0.644047C0.351338 19.4439 0.114014 19.6812 0.114014 19.9739V31.0858C0.114014 31.3787 0.351338 31.6161 0.644047 31.6161ZM7.6406 21.254C7.72342 21.2537 7.8052 21.2343 7.87922 21.1968C9.46026 20.4043 10.4574 18.7858 10.4538 17.0171V16.8509C10.4406 16.243 10.9072 15.7319 11.5139 15.6894C11.8112 15.6809 12.0993 15.7929 12.3126 16.0002C12.5248 16.2052 12.6443 16.4881 12.6436 16.7831V19.4131C12.6425 19.6993 12.54 19.976 12.354 20.1937H10.9414C10.6487 20.1937 10.4114 20.431 10.4114 20.7237C10.4114 21.0164 10.6487 21.2537 10.9414 21.2537H14.6516C15.7645 21.2543 16.6672 22.1549 16.6701 23.2678V29.0831C16.6688 30.1973 15.7658 31.1003 14.6516 31.1015H11.4093C10.7747 31.1028 10.1549 30.9095 9.63392 30.5472C8.93514 30.063 8.10515 29.8039 7.25498 29.8049H5.70188V21.2537L7.6406 21.254ZM1.17408 20.5042H4.64104V30.556H1.17408V20.5042Z" fill="white"/>
<path d="M3.48657 27.3184C3.19387 27.3184 2.95654 27.5557 2.95654 27.8484V29.1875C2.95654 29.4804 3.19387 29.7175 3.48657 29.7175C3.77928 29.7175 4.01661 29.4804 4.01661 29.1875V27.8484C4.01661 27.5557 3.77928 27.3184 3.48657 27.3184Z" fill="white"/>
<path d="M15.4952 12.8061H16.582C16.4901 13.0561 16.4432 13.3204 16.443 13.5869V16.2169C16.4443 17.4079 17.4109 18.3725 18.6022 18.3712H18.664C19.8419 18.3073 20.7614 17.3295 20.7531 16.1501V15.984C20.7498 14.6592 21.4729 13.4392 22.6364 12.8061H24.445V13.0258C24.445 13.3185 24.6823 13.5559 24.975 13.5559H29.502C29.7948 13.5559 30.0321 13.3185 30.0321 13.0258V1.9135C30.0321 1.62079 29.7948 1.38347 29.502 1.38347H24.975C24.6823 1.38347 24.445 1.62079 24.445 1.9135V2.13349H22.8911C22.2568 2.13452 21.6372 1.94119 21.1154 1.5799C20.4172 1.09464 19.5864 0.835577 18.736 0.837906H15.4952C13.7964 0.839718 12.4193 2.21631 12.417 3.91536V9.73047C12.4196 11.429 13.7967 12.8048 15.4952 12.8061ZM25.5053 2.44379H28.9723V12.4958H25.5051V2.44354L25.5053 2.44379ZM13.4771 3.91536C13.4786 2.80146 14.3816 1.89927 15.4952 1.89797H18.7368C19.3714 1.89642 19.9912 2.09001 20.5124 2.45234C21.2112 2.93656 22.0412 3.19563 22.8914 3.19433H24.4445V11.746H22.5055C22.4227 11.7463 22.3409 11.7657 22.2671 11.8032C20.6858 12.5957 19.6889 14.214 19.6923 15.9827V16.1488C19.7057 16.7568 19.2391 17.2679 18.6322 17.3104C18.3364 17.3192 18.0491 17.2081 17.8364 17.0021C17.6236 16.7961 17.5033 16.5127 17.5025 16.2167V13.5867C17.5036 13.3002 17.6063 13.0238 17.7921 12.8061H19.2047C19.4974 12.8061 19.7347 12.5688 19.7347 12.2761C19.7347 11.9834 19.4974 11.746 19.2047 11.746H15.4944C14.3816 11.7455 13.4789 10.8449 13.4763 9.73176L13.4771 3.91536Z" fill="white"/>
<path d="M26.6594 5.68259C26.9524 5.68259 27.1895 5.44526 27.1895 5.15255V3.81324C27.1895 3.52053 26.9524 3.2832 26.6594 3.2832C26.3667 3.2832 26.1294 3.52053 26.1294 3.81324V5.15255C26.1294 5.44526 26.3667 5.68259 26.6594 5.68259Z" fill="white"/>
</svg>
