<svg width="24" height="22" viewBox="0 0 24 22" fill="none" xmlns="http://www.w3.org/2000/svg">
<path d="M4.23803 8.26172H1.18512C0.763632 8.26172 0.421875 8.60342 0.421875 9.02496V21.2364C0.421875 21.6579 0.763581 21.9996 1.18512 21.9996H4.23798C4.65946 21.9996 5.00122 21.6579 5.00122 21.2364V9.02491C5.00122 8.60343 4.65956 8.26172 4.23803 8.26172Z" fill="white"/>
<path d="M23.3049 10.2862C23.1703 9.10222 22.0643 8.26306 20.8727 8.26306H14.9225C15.4281 7.35759 15.6996 4.79654 15.6875 3.75035C15.6676 2.01861 14.2335 0.630859 12.5017 0.630859H11.8719C11.45 0.630859 11.1086 0.972211 11.1086 1.3941C11.1086 3.159 10.4214 6.3446 9.12533 7.64074C8.25296 8.51311 7.50719 8.82922 6.5293 9.31794V20.77C8.02648 21.269 9.92742 22.001 12.8248 22.001H17.8174C19.4625 22.001 20.7437 20.4775 20.1062 18.8677C21.0774 18.6031 21.7937 17.7124 21.7937 16.6585C21.7937 16.3611 21.7363 16.0764 21.6327 15.8148C23.2693 15.3689 23.8717 13.348 22.7358 12.0792C23.1531 11.6129 23.3833 10.9752 23.3049 10.2862Z" fill="white"/>
</svg>
